<svg width="73" height="624" viewBox="0 0 73 624" fill="none" xmlns="http://www.w3.org/2000/svg">
<rect y="103" width="12" height="73" transform="rotate(-90 0 103)" fill="black"/>
<rect y="209" width="12" height="73" transform="rotate(-90 0 209)" fill="black"/>
<rect y="67" width="17" height="73" transform="rotate(-90 0 67)" fill="black"/>
<rect y="88" width="3" height="73" transform="rotate(-90 0 88)" fill="black"/>
<rect y="194" width="3" height="73" transform="rotate(-90 0 194)" fill="black"/>
<rect y="300" width="3" height="73" transform="rotate(-90 0 300)" fill="black"/>
<rect y="319" width="3" height="73" transform="rotate(-90 0 319)" fill="black"/>
<rect y="328" width="3" height="73" transform="rotate(-90 0 328)" fill="black"/>
<rect y="281" width="3" height="73" transform="rotate(-90 0 281)" fill="black"/>
<rect y="77" width="2" height="73" transform="rotate(-90 0 77)" fill="black"/>
<rect y="183" width="2" height="73" transform="rotate(-90 0 183)" fill="black"/>
<rect y="289" width="2" height="73" transform="rotate(-90 0 289)" fill="black"/>
<rect y="309" width="2" height="73" transform="rotate(-90 0 309)" fill="black"/>
<rect y="270" width="2" height="73" transform="rotate(-90 0 270)" fill="black"/>
<rect y="72" width="2" height="73" transform="rotate(-90 0 72)" fill="black"/>
<rect y="178" width="2" height="73" transform="rotate(-90 0 178)" fill="black"/>
<rect y="284" width="2" height="73" transform="rotate(-90 0 284)" fill="black"/>
<rect y="304" width="2" height="73" transform="rotate(-90 0 304)" fill="black"/>
<rect y="323" width="2" height="73" transform="rotate(-90 0 323)" fill="black"/>
<rect y="332" width="2" height="73" transform="rotate(-90 0 332)" fill="black"/>
<rect y="343" width="2" height="73" transform="rotate(-90 0 343)" fill="black"/>
<rect y="82" width="2" height="73" transform="rotate(-90 0 82)" fill="black"/>
<rect y="188" width="2" height="73" transform="rotate(-90 0 188)" fill="black"/>
<rect y="294" width="2" height="73" transform="rotate(-90 0 294)" fill="black"/>
<rect y="314" width="2" height="73" transform="rotate(-90 0 314)" fill="black"/>
<rect y="275" width="2" height="73" transform="rotate(-90 0 275)" fill="black"/>
<rect y="54.5195" width="4.42424" height="73" transform="rotate(-90 0 54.5195)" fill="black"/>
<rect y="160.52" width="4.42424" height="73" transform="rotate(-90 0 160.52)" fill="black"/>
<rect y="266.52" width="4.42424" height="73" transform="rotate(-90 0 266.52)" fill="black"/>
<rect y="339" width="4.42424" height="73" transform="rotate(-90 0 339)" fill="black"/>
<rect y="45" width="3" height="73" transform="rotate(-90 0 45)" fill="black"/>
<rect y="151" width="3" height="73" transform="rotate(-90 0 151)" fill="black"/>
<rect y="257" width="3" height="73" transform="rotate(-90 0 257)" fill="black"/>
<rect y="3" width="3" height="73" transform="rotate(-90 0 3)" fill="black"/>
<rect y="109" width="3" height="73" transform="rotate(-90 0 109)" fill="black"/>
<rect y="215" width="3" height="73" transform="rotate(-90 0 215)" fill="black"/>
<rect y="38" width="10" height="73" transform="rotate(-90 0 38)" fill="black"/>
<rect y="144" width="10" height="73" transform="rotate(-90 0 144)" fill="black"/>
<rect y="173" width="10" height="73" transform="rotate(-90 0 173)" fill="black"/>
<rect y="250" width="10" height="73" transform="rotate(-90 0 250)" fill="black"/>
<rect y="24" width="4.42424" height="73" transform="rotate(-90 0 24)" fill="black"/>
<rect y="130" width="4.42424" height="73" transform="rotate(-90 0 130)" fill="black"/>
<rect y="236" width="4.42424" height="73" transform="rotate(-90 0 236)" fill="black"/>
<rect y="16" width="2" height="73" transform="rotate(-90 0 16)" fill="black"/>
<rect y="122" width="2" height="73" transform="rotate(-90 0 122)" fill="black"/>
<rect y="228" width="2" height="73" transform="rotate(-90 0 228)" fill="black"/>
<rect y="10" width="4.42424" height="73" transform="rotate(-90 0 10)" fill="black"/>
<rect y="116" width="4.42424" height="73" transform="rotate(-90 0 116)" fill="black"/>
<rect y="222" width="4.42424" height="73" transform="rotate(-90 0 222)" fill="black"/>
<rect y="446" width="12" height="73" transform="rotate(-90 0 446)" fill="black"/>
<rect y="552" width="12" height="73" transform="rotate(-90 0 552)" fill="black"/>
<rect y="410" width="17" height="73" transform="rotate(-90 0 410)" fill="black"/>
<rect y="431" width="3" height="73" transform="rotate(-90 0 431)" fill="black"/>
<rect y="537" width="3" height="73" transform="rotate(-90 0 537)" fill="black"/>
<rect y="624" width="3" height="73" transform="rotate(-90 0 624)" fill="black"/>
<rect y="420" width="2" height="73" transform="rotate(-90 0 420)" fill="black"/>
<rect y="526" width="2" height="73" transform="rotate(-90 0 526)" fill="black"/>
<rect y="613" width="2" height="73" transform="rotate(-90 0 613)" fill="black"/>
<rect y="415" width="2" height="73" transform="rotate(-90 0 415)" fill="black"/>
<rect y="521" width="2" height="73" transform="rotate(-90 0 521)" fill="black"/>
<rect y="425" width="2" height="73" transform="rotate(-90 0 425)" fill="black"/>
<rect y="531" width="2" height="73" transform="rotate(-90 0 531)" fill="black"/>
<rect y="618" width="2" height="73" transform="rotate(-90 0 618)" fill="black"/>
<rect y="397.52" width="4.42424" height="73" transform="rotate(-90 0 397.52)" fill="black"/>
<rect y="503.52" width="4.42424" height="73" transform="rotate(-90 0 503.52)" fill="black"/>
<rect y="609.52" width="4.42424" height="73" transform="rotate(-90 0 609.52)" fill="black"/>
<rect y="388" width="3" height="73" transform="rotate(-90 0 388)" fill="black"/>
<rect y="494" width="3" height="73" transform="rotate(-90 0 494)" fill="black"/>
<rect y="600" width="3" height="73" transform="rotate(-90 0 600)" fill="black"/>
<rect y="346" width="3" height="73" transform="rotate(-90 0 346)" fill="black"/>
<rect y="452" width="3" height="73" transform="rotate(-90 0 452)" fill="black"/>
<rect y="558" width="3" height="73" transform="rotate(-90 0 558)" fill="black"/>
<rect y="381" width="10" height="73" transform="rotate(-90 0 381)" fill="black"/>
<rect y="487" width="10" height="73" transform="rotate(-90 0 487)" fill="black"/>
<rect y="516" width="10" height="73" transform="rotate(-90 0 516)" fill="black"/>
<rect y="593" width="10" height="73" transform="rotate(-90 0 593)" fill="black"/>
<rect y="367" width="4.42424" height="73" transform="rotate(-90 0 367)" fill="black"/>
<rect y="473" width="4.42424" height="73" transform="rotate(-90 0 473)" fill="black"/>
<rect y="579" width="4.42424" height="73" transform="rotate(-90 0 579)" fill="black"/>
<rect y="359" width="2" height="73" transform="rotate(-90 0 359)" fill="black"/>
<rect y="465" width="2" height="73" transform="rotate(-90 0 465)" fill="black"/>
<rect y="571" width="2" height="73" transform="rotate(-90 0 571)" fill="black"/>
<rect y="353" width="4.42424" height="73" transform="rotate(-90 0 353)" fill="black"/>
<rect y="459" width="4.42424" height="73" transform="rotate(-90 0 459)" fill="black"/>
<rect y="565" width="4.42424" height="73" transform="rotate(-90 0 565)" fill="black"/>
</svg>
