<svg width="170" height="864" viewBox="0 0 170 864" fill="none" xmlns="http://www.w3.org/2000/svg">
<path d="M29.1201 798.28C29.1201 811.533 35.4667 822.64 48.16 831.6C60.8534 840.373 78.4001 844.76 100.8 844.76C123.2 844.76 139.813 840.747 150.64 832.72C161.467 824.507 166.88 813.773 166.88 800.52C166.88 783.907 164.08 769.16 158.48 756.28L160.44 755.44C166.227 768.693 169.12 784.187 169.12 801.92C169.12 819.653 163.52 834.4 152.32 846.16C141.12 857.92 123.853 863.8 100.52 863.8C77.1867 863.8 59.0801 857.64 46.2001 845.32C33.3201 833 26.8801 817.32 26.8801 798.28C26.8801 787.64 29.3067 777.84 34.1601 768.88C39.0134 759.733 46.3867 753.013 56.2801 748.72L56.2801 766.64C47.1334 769.44 40.3201 773.733 35.84 779.52C31.3601 785.12 29.1201 791.373 29.1201 798.28ZM169.12 668.104C169.12 687.704 163.52 703.664 152.32 715.984C141.12 728.304 123.853 734.464 100.52 734.464C77.1867 734.464 59.08 728.117 46.2 715.424C33.32 702.544 26.8801 686.304 26.88 666.704C26.88 646.917 32.48 630.864 43.68 618.544C54.88 606.224 72.1467 600.064 95.48 600.064C118.813 600.064 136.92 606.504 149.8 619.384C162.68 632.077 169.12 648.317 169.12 668.104ZM29.12 666.144C29.12 680.331 35.4667 692.091 48.16 701.424C60.6667 710.757 78.2134 715.424 100.8 715.424C123.2 715.424 139.813 711.131 150.64 702.544C161.467 693.957 166.88 682.571 166.88 668.384C166.88 654.197 160.627 642.437 148.12 633.104C135.427 623.771 117.88 619.104 95.48 619.104C72.8934 619.104 56.1867 623.397 45.36 631.984C34.5334 640.571 29.12 651.957 29.12 666.144ZM168 467.053C168 474.706 166.32 480.586 162.96 484.693C159.6 488.613 156.24 490.666 152.88 490.853L148.12 491.133L60.2 491.133C45.4534 491.133 36.0267 494.96 31.92 502.613C30.0534 506.533 29.12 511.386 29.12 517.173C29.12 529.12 33.88 539.853 43.4 549.373C52.7334 558.893 61.1334 563.653 68.6 563.653L168 563.653L168 583.253L28 583.253L28 563.653L59.92 563.653C51.8934 560.48 44.4267 554.6 37.52 546.013C30.4267 537.426 26.88 528 26.88 517.733C26.88 507.466 27.9067 499.16 29.96 492.813C31.8267 486.28 34.5334 481.52 38.08 478.533C43.8667 473.866 51.3334 471.533 60.48 471.533L148.12 471.533C153.533 471.533 157.733 470.506 160.72 468.453C163.52 466.213 165.013 463.973 165.2 461.733L165.76 458.653L165.76 449.973L168 449.973L168 467.053ZM30.24 437.27L28 437.27L28 431.39L3.49686e-05 431.39L3.41119e-05 411.79L28 411.79L28 368.95L30.24 368.95L30.24 411.79L132.16 411.79C144.293 411.79 153.067 410.484 158.48 407.87C163.893 405.07 166.6 399.377 166.6 390.79C166.6 382.017 164.827 373.15 161.28 364.19L163.52 363.35C167.067 372.684 168.84 383.417 168.84 395.55C168.84 407.497 166.413 416.457 161.56 422.43C156.52 428.404 146.627 431.39 131.88 431.39L30.24 431.39L30.24 437.27ZM168 232.183C168 244.877 165.573 253.557 160.72 258.223C156.613 262.517 153.067 264.663 150.08 264.663L144.2 264.663C160.813 273.81 169.12 288.463 169.12 308.623C169.12 332.143 158.48 345.49 137.2 348.663C134.96 349.037 132.72 349.223 130.48 349.223C128.053 349.223 125.44 348.85 122.64 348.103C119.84 347.357 116.76 345.21 113.4 341.663C106.68 334.57 102.573 318.983 101.08 294.903C100.52 288.93 100.24 283.423 100.24 278.383C100.24 273.343 100.427 268.77 100.8 264.663L54.32 264.663C54.1334 265.037 53.2934 265.037 51.8 264.663C50.12 264.29 48.0667 264.663 45.64 265.783C43.0267 266.717 40.5067 268.023 38.08 269.703C35.6534 271.383 33.6 274.37 31.92 278.663C30.0534 282.957 29.12 288.557 29.12 295.463C29.12 302.37 30.4267 310.49 33.04 319.823C35.4667 328.97 37.8934 335.69 40.32 339.983L38.36 341.103C30.7067 324.49 26.88 307.597 26.88 290.423C26.88 271.197 30.3334 258.503 37.24 252.343C42.6534 247.49 48.3467 245.063 54.32 245.063L148.12 245.063C153.533 245.063 157.733 244.037 160.72 241.983C163.52 239.743 165.013 237.503 165.2 235.263L165.76 232.183L165.76 223.503L168 223.503L168 232.183ZM166.88 304.143C166.88 294.25 163.52 285.383 156.8 277.543C149.893 269.517 143.267 265.223 136.92 264.663L103.04 264.663C102.667 269.703 102.48 274.837 102.48 280.063C102.48 285.103 102.76 290.143 103.32 295.183C105 309.37 108.173 318.61 112.84 322.903C117.507 327.197 123.947 329.343 132.16 329.343C133.653 329.343 135.333 329.25 137.2 329.063C156.987 327.383 166.88 319.077 166.88 304.143ZM29.12 142.577C29.12 155.83 35.4667 166.937 48.16 175.897C60.8534 184.67 78.4 189.057 100.8 189.057C123.2 189.057 139.813 185.044 150.64 177.017C161.467 168.804 166.88 158.07 166.88 144.817C166.88 128.204 164.08 113.457 158.48 100.577L160.44 99.7369C166.227 112.99 169.12 128.484 169.12 146.217C169.12 163.95 163.52 178.697 152.32 190.457C141.12 202.217 123.853 208.097 100.52 208.097C77.1867 208.097 59.08 201.937 46.2 189.617C33.32 177.297 26.88 161.617 26.88 142.577C26.88 131.937 29.3067 122.137 34.16 113.177C39.0134 104.03 46.3867 97.3102 56.28 93.0169L56.28 110.937C47.1334 113.737 40.32 118.03 35.84 123.817C31.36 129.417 29.12 135.67 29.12 142.577ZM30.24 74.6922L28 74.6922L28 68.8122L1.91198e-05 68.8122L1.82631e-05 49.2122L28 49.2122L28 6.37218L30.24 6.37218L30.24 49.2122L132.16 49.2122C144.293 49.2122 153.067 47.9055 158.48 45.2922C163.893 42.4922 166.6 36.7988 166.6 28.2122C166.6 19.4388 164.827 10.5722 161.28 1.61218L163.52 0.772169C167.067 10.1055 168.84 20.8388 168.84 32.9722C168.84 44.9188 166.413 53.8788 161.56 59.8522C156.52 65.8255 146.627 68.8122 131.88 68.8122L30.24 68.8122L30.24 74.6922Z" fill="#D74E19"/>
</svg>
