<svg width="45" height="320" viewBox="0 0 45 320" fill="none" xmlns="http://www.w3.org/2000/svg">
<path d="M45 319.78L0.779997 319.78L0.779996 296.44L7.08 290.2L22.26 290.2L28.56 296.44L28.56 314.32L45 314.32L45 319.78ZM23.7 314.32L23.7 298.9L20.4 295.66L8.94 295.66L5.58 298.9L5.64 314.32L23.7 314.32ZM45 283.159L0.779995 283.159L0.779994 258.979L7.08 252.739L21.18 252.739L27.48 258.979L27.48 259.159L45 251.179L45 257.239L27.48 265.099L27.48 277.699L45 277.699L45 283.159ZM22.62 277.699L22.62 261.439L19.32 258.199L8.94 258.199L5.64 261.439L5.64 277.699L22.62 277.699ZM45 237.393L38.7 243.693L7.07999 243.693L0.779993 237.393L0.779992 216.513L7.07999 210.213L38.7 210.213L45 216.513L45 237.393ZM40.14 234.933L40.14 218.973L36.84 215.673L8.93999 215.673L5.63999 218.973L5.63999 234.933L8.94 238.233L36.84 238.233L40.14 234.933ZM45 197.752L38.7 203.992L28.56 203.992L28.56 198.532L36.84 198.532L40.14 195.232L40.14 186.292L36.84 182.992L0.779991 182.992L0.779991 177.532L38.7 177.532L45 183.832L45 197.752ZM45 167.143L0.77999 167.143L0.779989 137.983L5.81999 137.983L5.81999 161.683L19.26 161.683L19.26 140.503L24.24 140.503L24.24 161.683L39.96 161.683L39.96 137.983L45 137.983L45 167.143ZM45 124.483L38.7 130.783L7.07999 130.783L0.779988 124.483L0.779987 104.503L6.89999 98.3833L10.44 101.863L5.63999 106.663L5.63999 122.023L8.93999 125.323L36.84 125.323L40.14 122.023L40.14 106.183L35.28 101.323L38.82 97.8433L45 104.083L45 124.483ZM45 82.0956L5.81999 82.0956L5.81999 95.2356L0.779987 95.2356L0.779986 63.4956L5.81999 63.4956L5.81999 76.6356L45 76.6356L45 82.0956ZM45 52.3544L38.7 58.6544L7.07999 58.6544L0.779985 52.3544L0.779984 33.1544L7.07999 26.8544L38.7 26.8544L45 33.1544L45 52.3544ZM40.14 49.8944L40.14 35.6144L36.84 32.3144L8.93999 32.3144L5.63999 35.6144L5.63999 49.8944L8.93999 53.1944L36.84 53.1344L40.14 49.8944ZM45 19.3534L39.96 19.3534L39.96 12.5734L5.81998 12.5734L5.81998 18.6334L0.779984 18.6334L0.779983 7.11344L39.96 7.11343L39.96 0.333434L45 0.333434L45 19.3534Z" fill="black"/>
</svg>
